<?xml version="1.0" encoding="UTF-8" standalone="no"?>
<!-- Created with Inkscape (http://www.inkscape.org/) -->

<svg

   xmlnSvg="http://www.w3.org/2000/svg"
   xmlns="http://www.w3.org/2000/svg"
   width="100"
   height="100"
   viewBox="0 0 99.999997 100">
  
  <g
     id="layer1"
     transform="translate(0,-952.36218)">
    <path
       style="opacity:1;fill:#ff3d00;fill-opacity:1;fill-rule:nonzero;stroke:none;stroke-width:0.1;stroke-linecap:square;stroke-linejoin:round;stroke-miterlimit:4;stroke-dasharray:none;stroke-dashoffset:0;stroke-opacity:1"
       d="M 42 12 L 38 16 L 24 16 C 22 16 20 17 20 19 L 20 24 L 24 24 L 24 84 C 24 86.215999 26.23 88 29 88 L 71 88 C 73.77 88 76 86.215999 76 84 L 76 24 L 80 24 L 80 19 C 80 17 78 16 76 16 L 62 16 L 58 12 L 42 12 z M 42.222656 40.150391 L 50 47.927734 L 57.777344 40.150391 L 64.849609 47.222656 L 57.072266 55 L 64.849609 62.777344 L 57.777344 69.849609 L 50 62.072266 L 42.222656 69.849609 L 35.150391 62.777344 L 42.927734 55 L 35.150391 47.222656 L 42.222656 40.150391 z "
       transform="translate(0,952.36218)"
       id="rect4149" />
  </g>
</svg>
