<?xml version="1.0" encoding="UTF-8" standalone="no"?>
<svg
   xmlnsSvg="http://www.w3.org/2000/svg"
   xmlns="http://www.w3.org/2000/svg"
   viewBox="0 0 60 60"
   width="60"
   height="60">
 
  <g> 
  <path
     style="opacity:1;fill:#ffffff;fill-opacity:1;fill-rule:nonzero;stroke:none;stroke-width:0.1;stroke-linecap:square;stroke-linejoin:round;stroke-miterlimit:4;stroke-dasharray:none;stroke-dashoffset:0;stroke-opacity:1"
     d="M 5 10 L 5 20 L 15 20 L 15 10 L 5 10 z M 20 10 L 20 20 L 55 20 L 55 10 L 20 10 z "
     id="rect4186" />
  <path
     style="opacity:1;fill:#ffffff;fill-opacity:1;fill-rule:nonzero;stroke:none;stroke-width:0.1;stroke-linecap:square;stroke-linejoin:round;stroke-miterlimit:4;stroke-dasharray:none;stroke-dashoffset:0;stroke-opacity:1"
     d="M 5 25 L 5 35 L 15 35 L 15 25 L 5 25 z M 20 25 L 20 35 L 55 35 L 55 25 L 20 25 z "
     id="rect4188" />
  <path
     style="opacity:1;fill:#ffffff;fill-opacity:1;fill-rule:nonzero;stroke:none;stroke-width:0.1;stroke-linecap:square;stroke-linejoin:round;stroke-miterlimit:4;stroke-dasharray:none;stroke-dashoffset:0;stroke-opacity:1"
     d="M 5 40 L 5 50 L 15 50 L 15 40 L 5 40 z M 20 40 L 20 50 L 55 50 L 55 40 L 20 40 z "
     id="rect4190" /></g>
</svg>
