<svg xmlns="http://www.w3.org/2000/svg"  viewBox="0 0 100 100" width="60px" height="60px"><circle cx="75.5" cy="27.5" r="8.5" fill="#4b4dff"/><path fill="#4343bf" d="M75.5,39c-6.341,0-1.622-1.271-1.622-7.612c0-3.729-8.076-10.925-5.316-13.028 C70.495,16.888,72.889,16,75.5,16C81.841,16,87,21.159,87,27.5c0,2.708-0.733,5.493-2.514,7.274C84.114,35.146,79.132,39,75.5,39z M75.5,22c-3.032,0-5.5,2.468-5.5,5.5s2.468,5.5,5.5,5.5s5.5-2.468,5.5-5.5S78.532,22,75.5,22z"/><rect width="13.435" height="59" x="43.282" y="20.5" fill="#4b4dff" transform="rotate(45.001 50 50)"/><path fill="#4343bf" d="M36.967,82.032L19.998,66.071L68.49,18.42l15.17,16.306L36.967,82.032z M28.646,65.968l8.164,7.682 l38.551-39.057l-7.118-7.687L28.646,65.968z"/><polygon fill="#3abcf8" points="40.992,77.954 33.983,70.946 70.327,34.602 61.342,25.412 68.49,18.42 84.486,34.774"/><polygon fill="#ff8405" points="20,66 20,82 37,82"/></svg>